PathFileType	4	(X/Y/Z)	C:/Users/CLatella/Desktop/xsens/test 22settembre2016/Meri Veloce/Meri-002_My MVN System.trc	
DataRate	CameraRate	NumFrames	NumMarkers	Units	OrigDataRate	OrigDataStartFrame	OrigNumFrames	
240.00	240.00	4	64	mm	240.00	75	597	
Frame#	Time	pHipOrigin			pRightASI			pLeftASI			pRightCSI			pLeftCSI			pRightIschialTub			pLeftIschialTub			pSacrum			pL5SpinalProcess			pL3SpinalProcess			pT12SpinalProcess			pPX			pIJ			pT4SpinalProcess			pT8SpinalProcess			pC7SpinalProcess			pTopOfHead			pRightAuricularis			pLeftAuricularis			pBackOfHead			pRightAcromion			pLeftAcromion			pRightArmLatEpicondyle			pRightArmMedEpicondyle			pLeftArmLatEpicondyle			pLeftArmMedEpicondyle			pRightUlnarStyloid			pRightRadialStyloid			pRightOlecranon			pLeftUlnarStyloid			pLeftRadialStyloid			pLeftOlecranon			pRightTopOfHand			pRightPinky			pRightBallHand			pLeftTopOfHand			pLeftPinky			pLeftBallHand			pRightGreaterTrochanter			pRightKneeLatEpicondyle			pRightKneeMedEpicondyle			pRightPatella			pLeftGreaterTrochanter			pLeftKneeLatEpicondyle			pLeftKneeMedEpicondyle			pLeftPatella			pRightLatMalleolus			pRightMedMalleolus			pRightTibialTub			pLeftLatMalleolus			pLeftMedMalleolus			pLeftTibialTub			pRightHeelFoot			pRightFirstMetatarsal			pRightFifthMetatarsal			pRightPivotFoot			pRightHeelCenter			pRightToe			pLeftHeelFoot			pLeftFirstMetatarsal			pLeftFifthMetatarsal			pLeftPivotFoot			pLeftHeelCenter			pLeftToe			
		X1	Y1	Z1	X2	Y2	Z2	X3	Y3	Z3	X4	Y4	Z4	X5	Y5	Z5	X6	Y6	Z6	X7	Y7	Z7	X8	Y8	Z8	X9	Y9	Z9	X10	Y10	Z10	X11	Y11	Z11	X12	Y12	Z12	X13	Y13	Z13	X14	Y14	Z14	X15	Y15	Z15	X16	Y16	Z16	X17	Y17	Z17	X18	Y18	Z18	X19	Y19	Z19	X20	Y20	Z20	X21	Y21	Z21	X22	Y22	Z22	X23	Y23	Z23	X24	Y24	Z24	X25	Y25	Z25	X26	Y26	Z26	X27	Y27	Z27	X28	Y28	Z28	X29	Y29	Z29	X30	Y30	Z30	X31	Y31	Z31	X32	Y32	Z32	X33	Y33	Z33	X34	Y34	Z34	X35	Y35	Z35	X36	Y36	Z36	X37	Y37	Z37	X38	Y38	Z38	X39	Y39	Z39	X40	Y40	Z40	X41	Y41	Z41	X42	Y42	Z42	X43	Y43	Z43	X44	Y44	Z44	X45	Y45	Z45	X46	Y46	Z46	X47	Y47	Z47	X48	Y48	Z48	X49	Y49	Z49	X50	Y50	Z50	X51	Y51	Z51	X52	Y52	Z52	X53	Y53	Z53	X54	Y54	Z54	X55	Y55	Z55	X56	Y56	Z56	X57	Y57	Z57	X58	Y58	Z58	X59	Y59	Z59	X60	Y60	Z60	X61	Y61	Z61	X62	Y62	Z62	X63	Y63	Z63	X64	Y64	Z64	

75	0.308	70.50998	191.63480	927.40421	151.89464	74.26851	987.49054	147.73520	313.81201	983.13065	133.45279	96.16820	1064.86610	129.99495	294.16744	1061.25791	9.47149	140.41860	894.17882	7.71751	239.39316	892.37473	9.47149	191.23389	965.34028	61.63986	193.78969	1030.98923	105.18866	191.58469	1127.80891	152.34566	187.67582	1208.84277	310.85531	181.11093	1191.45331	379.06006	172.34103	1278.25025	260.19035	175.44808	1344.95159	207.62108	181.86263	1283.51219	289.65721	172.19069	1380.43209	504.64500	166.37750	1511.88034	425.26489	101.78093	1456.00356	429.17376	232.17679	1452.14480	386.02586	169.13375	1484.56837	314.91452	7.26649	1345.00170	300.53188	351.19684	1325.20679	334.30852	18.84275	1031.59060	311.35644	75.37101	1032.59287	308.29951	356.25832	1014.15103	292.61392	297.37472	1011.89591	344.58183	35.22993	802.77143	385.02359	58.68315	808.38416	303.38836	33.17527	1029.98696	360.11708	339.01921	790.59380	395.44724	309.95326	801.66892	283.24266	343.62967	1008.28773	512.76342	22.15026	721.78768	433.28309	5.96353	736.62134	382.16711	35.43039	773.10411	518.47638	392.08962	724.29336	443.90719	397.90281	758.92193	393.09189	353.90298	776.21116	58.08178	45.50324	898.83940	85.84478	75.47124	519.92968	104.53719	146.73293	521.18252	135.40723	102.98366	525.54241	79.98147	341.42467	904.10133	59.73554	353.75264	523.68821	49.06132	281.18799	516.17115	94.86524	309.00110	520.18025	118.31846	60.73781	96.36865	115.36175	123.43005	93.36183	163.92193	113.10663	490.01180	62.04077	374.04869	95.56683	68.60566	311.65713	91.45751	121.27516	322.58191	487.55623	81.73545	90.65569	-0.05011	226.16315	121.37539	6.46467	225.31121	54.67405	7.76762	244.65510	88.70126	8.06831	121.02460	90.25478	6.16399	321.42930	87.79921	10.97490	26.66049	336.71398	0.15034	174.49592	335.76182	0.40091	160.21351	400.90963	1.95443	186.02207	371.49289	1.35307	65.34827	345.03285	4.71069	261.14251	387.93018	0.90205 
76	0.313	70.56010	191.58469	927.40421	152.14521	74.26851	987.23997	147.93565	313.81201	982.88008	133.95393	96.16820	1064.66564	130.44597	294.11733	1061.05746	9.42138	140.36849	894.32916	7.66740	239.39316	892.52507	9.67194	191.23389	965.49062	61.99065	193.78969	1030.98923	105.84014	191.53458	1127.65857	153.29782	187.62571	1208.59220	311.70724	181.11093	1190.60138	380.26279	172.34103	1277.14775	261.64365	175.34785	1344.30011	208.82380	181.81252	1283.06116	291.26085	172.09046	1379.63027	506.54932	166.42761	1510.47715	427.06899	101.73082	1454.85094	430.87763	232.12668	1450.89196	387.88007	169.08364	1483.51598	316.26759	7.21637	1344.30011	301.78473	351.14672	1324.50520	333.95772	18.39173	1030.68855	311.15599	74.97010	1031.74094	307.74826	356.60912	1013.39932	292.11278	297.67540	1011.14421	344.28115	35.07959	801.86938	384.67279	58.63303	807.48211	303.13780	32.72425	1029.08491	360.01685	339.21966	789.94232	395.29690	310.05349	801.11767	282.74152	343.98046	1007.53602	513.26456	21.99992	722.33893	433.63388	5.91342	736.37077	382.11699	35.33016	772.40252	519.12786	391.53837	724.64416	444.35821	397.75247	758.77159	393.24224	353.95309	775.71003	58.08178	45.45313	898.83940	85.79466	75.37101	519.92968	104.58730	146.68281	521.18252	135.40723	102.88343	525.54241	80.03159	341.37455	904.10133	59.63531	353.80275	523.68821	48.96109	281.28822	516.17115	94.76501	309.05121	520.18025	118.31846	60.68770	96.36865	115.36175	123.37994	93.36183	163.92193	113.05652	490.01180	61.99065	374.14891	95.61695	68.60566	311.75735	91.45751	121.17494	322.68214	487.55623	81.73545	90.60558	-0.05011	226.16315	121.37539	6.46467	225.31121	54.67405	7.71751	244.65510	88.70126	8.06831	121.07471	90.20467	6.16399	321.42930	87.79921	10.97490	26.66049	336.76409	0.15034	174.44580	335.81193	0.45102	160.21351	401.00986	1.95443	186.02207	371.54300	1.35307	65.29816	345.13308	4.71069	261.09240	387.98030	0.90205 
77	0.317	70.61021	191.58469	927.40421	152.39577	74.26851	986.98940	148.13611	313.81201	982.62951	134.40495	96.16820	1064.46519	130.89699	294.11733	1060.85700	9.37126	140.36849	894.52962	7.61728	239.34305	892.72552	9.82229	191.18378	965.69108	62.39156	193.73958	1031.03935	106.54173	191.48446	1127.55834	154.30009	187.57559	1208.29152	312.65940	181.11093	1189.74945	381.51563	172.29091	1275.99513	263.14706	175.24762	1343.64863	210.07665	181.71229	1282.56003	292.86449	171.99023	1378.82845	508.50376	166.42761	1509.07397	428.92319	101.68071	1453.69833	432.68172	232.12668	1449.68923	389.78439	169.03352	1482.36337	317.72088	7.16626	1343.59852	303.08768	351.09661	1323.85372	333.60693	17.89059	1029.73639	310.90542	74.51908	1030.93912	307.19701	356.95991	1012.64762	291.56153	298.02620	1010.39250	343.98046	34.92925	801.01745	384.32200	58.53281	806.63018	302.83711	32.17300	1028.23298	359.91662	339.37000	789.34095	395.14656	310.20383	800.51631	282.24038	344.33126	1006.73420	513.66547	21.84957	722.84007	433.88445	5.81319	736.07009	382.06688	35.22993	771.65082	519.77934	390.98712	724.89473	444.75912	397.55201	758.57114	393.34246	354.00321	775.15877	58.13190	45.45313	898.83940	85.79466	75.32090	519.87957	104.58730	146.58258	521.13241	135.40723	102.78321	525.54241	80.08170	341.37455	904.10133	59.48497	353.90298	523.73832	48.81075	281.38845	516.22127	94.61467	309.15144	520.18025	118.36857	60.58747	96.31854	115.41186	123.32983	93.31172	163.92193	113.00640	490.01180	61.94054	374.29926	95.61695	68.55555	311.90769	91.45751	121.07471	322.78237	487.60634	81.78557	90.50535	-0.10023	226.21326	121.32528	6.41455	225.36133	54.57382	7.71751	244.70522	88.65114	8.06831	121.12482	90.15455	6.11387	321.42930	87.79921	10.97490	26.61038	336.91443	0.15034	174.39569	336.06250	0.45102	160.11328	401.21031	2.00455	185.97196	371.79357	1.40318	65.29816	345.28342	4.71069	261.04228	388.23087	0.90205 
78	0.321	70.66032	191.58469	927.40421	152.64634	74.26851	986.73883	148.38668	313.81201	982.37894	134.90609	96.16820	1064.26473	131.34802	294.11733	1060.65655	9.32115	140.36849	894.67996	7.56717	239.34305	892.92598	10.02274	191.18378	965.84142	62.74236	193.73958	1031.03935	107.24333	191.48446	1127.45811	155.30237	187.52548	1207.99084	313.56145	181.16104	1188.84740	382.76847	172.29091	1274.84252	264.65047	175.14740	1342.94704	211.37960	181.66218	1282.05889	294.46813	171.89000	1378.02663	510.45819	166.42761	1507.67079	430.77740	101.68071	1452.49560	434.43570	232.07656	1448.43639	391.63860	168.98341	1481.26086	319.17418	7.11615	1342.89693	304.39064	351.04650	1323.15213	333.20602	17.33934	1028.83434	310.65485	74.01794	1030.03707	306.64576	357.31071	1011.89591	291.01028	298.42711	1009.64080	343.62967	34.77891	800.06529	383.97120	58.43258	805.72813	302.58655	31.67186	1027.28082	359.76628	339.47023	788.68947	394.94610	310.30406	799.96506	281.68913	344.73217	1005.93238	514.06638	21.69923	723.34120	434.13502	5.66285	735.81952	382.06688	35.12971	770.89911	520.33059	390.43587	725.09518	445.21015	397.35156	758.32057	393.49280	354.05332	774.65764	58.13190	45.45313	898.83940	85.74455	75.27078	519.87957	104.58730	146.48236	521.13241	135.40723	102.68298	525.49230	80.08170	341.37455	904.10133	59.38474	354.00321	523.73832	48.71052	281.43856	516.22127	94.51445	309.25167	520.18025	118.41868	60.48724	96.31854	115.41186	123.22960	93.31172	163.92193	112.95629	489.96168	61.89042	374.39948	95.61695	68.45532	312.00792	91.45751	120.97448	322.83248	487.60634	81.78557	90.45524	-0.10023	226.21326	121.27516	6.41455	225.36133	54.57382	7.66740	244.70522	88.60103	8.01819	121.12482	90.10444	6.11387	321.47941	87.74910	10.97490	26.56026	336.96455	0.15034	174.34558	336.21284	0.50114	160.06317	401.36066	2.00455	185.92184	371.94391	1.40318	65.19793	345.38365	4.71069	260.99217	388.43132	0.95216 
